<mxfile host="app.diagrams.net" agent="Mozilla/5.0 (Macintosh; Intel Mac OS X 10_15_7) AppleWebKit/537.36 (KHTML, like Gecko) Chrome/129.0.0.0 Safari/537.36" version="24.7.7">
  <diagram name="第 1 页" id="c4yLXtni61-MkvRaS4BO">
    <mxGraphModel dx="1434" dy="675" grid="1" gridSize="10" guides="1" tooltips="1" connect="1" arrows="1" fold="1" page="1" pageScale="1" pageWidth="827" pageHeight="1169" math="0" shadow="0">
      <root>
        <mxCell id="0" />
        <mxCell id="1" parent="0" />
        <mxCell id="KkR5ibo3o_02ODOIkOhk-320" value="" style="edgeStyle=orthogonalEdgeStyle;rounded=0;orthogonalLoop=1;jettySize=auto;html=1;" edge="1" parent="1" source="KkR5ibo3o_02ODOIkOhk-1" target="KkR5ibo3o_02ODOIkOhk-319">
          <mxGeometry relative="1" as="geometry" />
        </mxCell>
        <mxCell id="KkR5ibo3o_02ODOIkOhk-1" value="开始" style="ellipse;whiteSpace=wrap;html=1;" vertex="1" parent="1">
          <mxGeometry x="200" y="40" width="120" height="80" as="geometry" />
        </mxCell>
        <mxCell id="KkR5ibo3o_02ODOIkOhk-324" style="edgeStyle=orthogonalEdgeStyle;rounded=0;orthogonalLoop=1;jettySize=auto;html=1;exitX=0.5;exitY=1;exitDx=0;exitDy=0;" edge="1" parent="1" source="KkR5ibo3o_02ODOIkOhk-319" target="KkR5ibo3o_02ODOIkOhk-323">
          <mxGeometry relative="1" as="geometry" />
        </mxCell>
        <mxCell id="KkR5ibo3o_02ODOIkOhk-319" value="长按选择要转发的消息" style="whiteSpace=wrap;html=1;" vertex="1" parent="1">
          <mxGeometry x="200" y="160" width="120" height="60" as="geometry" />
        </mxCell>
        <mxCell id="KkR5ibo3o_02ODOIkOhk-328" value="" style="edgeStyle=orthogonalEdgeStyle;rounded=0;orthogonalLoop=1;jettySize=auto;html=1;" edge="1" parent="1" source="KkR5ibo3o_02ODOIkOhk-321" target="KkR5ibo3o_02ODOIkOhk-327">
          <mxGeometry relative="1" as="geometry" />
        </mxCell>
        <mxCell id="KkR5ibo3o_02ODOIkOhk-321" value="消息已数组形式发送socket" style="whiteSpace=wrap;html=1;" vertex="1" parent="1">
          <mxGeometry x="200" y="370" width="120" height="60" as="geometry" />
        </mxCell>
        <mxCell id="KkR5ibo3o_02ODOIkOhk-326" style="edgeStyle=orthogonalEdgeStyle;rounded=0;orthogonalLoop=1;jettySize=auto;html=1;exitX=0.5;exitY=1;exitDx=0;exitDy=0;exitPerimeter=0;entryX=0.5;entryY=0;entryDx=0;entryDy=0;" edge="1" parent="1" source="KkR5ibo3o_02ODOIkOhk-323" target="KkR5ibo3o_02ODOIkOhk-321">
          <mxGeometry relative="1" as="geometry" />
        </mxCell>
        <mxCell id="KkR5ibo3o_02ODOIkOhk-323" value="保存转发数据到数据库" style="shape=cylinder3;whiteSpace=wrap;html=1;boundedLbl=1;backgroundOutline=1;size=15;" vertex="1" parent="1">
          <mxGeometry x="230" y="260" width="60" height="80" as="geometry" />
        </mxCell>
        <mxCell id="KkR5ibo3o_02ODOIkOhk-330" value="" style="edgeStyle=orthogonalEdgeStyle;rounded=0;orthogonalLoop=1;jettySize=auto;html=1;" edge="1" parent="1" source="KkR5ibo3o_02ODOIkOhk-327" target="KkR5ibo3o_02ODOIkOhk-329">
          <mxGeometry relative="1" as="geometry" />
        </mxCell>
        <mxCell id="KkR5ibo3o_02ODOIkOhk-327" value="接收端收到多个单条socket消息" style="whiteSpace=wrap;html=1;" vertex="1" parent="1">
          <mxGeometry x="200" y="470" width="120" height="60" as="geometry" />
        </mxCell>
        <mxCell id="KkR5ibo3o_02ODOIkOhk-369" style="edgeStyle=orthogonalEdgeStyle;rounded=0;orthogonalLoop=1;jettySize=auto;html=1;" edge="1" parent="1" source="KkR5ibo3o_02ODOIkOhk-329">
          <mxGeometry relative="1" as="geometry">
            <mxPoint x="420" y="610" as="targetPoint" />
          </mxGeometry>
        </mxCell>
        <mxCell id="KkR5ibo3o_02ODOIkOhk-329" value="保存单条转发消息到数据库" style="shape=cylinder3;whiteSpace=wrap;html=1;boundedLbl=1;backgroundOutline=1;size=15;" vertex="1" parent="1">
          <mxGeometry x="230" y="570" width="60" height="80" as="geometry" />
        </mxCell>
        <mxCell id="KkR5ibo3o_02ODOIkOhk-336" value="true" style="edgeStyle=orthogonalEdgeStyle;rounded=0;orthogonalLoop=1;jettySize=auto;html=1;" edge="1" parent="1" source="KkR5ibo3o_02ODOIkOhk-333" target="KkR5ibo3o_02ODOIkOhk-335">
          <mxGeometry relative="1" as="geometry" />
        </mxCell>
        <mxCell id="KkR5ibo3o_02ODOIkOhk-333" value="判断是否保存成功" style="rhombus;whiteSpace=wrap;html=1;" vertex="1" parent="1">
          <mxGeometry x="420" y="570" width="80" height="80" as="geometry" />
        </mxCell>
        <mxCell id="KkR5ibo3o_02ODOIkOhk-374" value="" style="edgeStyle=orthogonalEdgeStyle;rounded=0;orthogonalLoop=1;jettySize=auto;html=1;" edge="1" parent="1" source="KkR5ibo3o_02ODOIkOhk-335" target="KkR5ibo3o_02ODOIkOhk-339">
          <mxGeometry relative="1" as="geometry" />
        </mxCell>
        <mxCell id="KkR5ibo3o_02ODOIkOhk-335" value="发送通知渲染本地redux消息" style="whiteSpace=wrap;html=1;" vertex="1" parent="1">
          <mxGeometry x="400" y="470" width="120" height="60" as="geometry" />
        </mxCell>
        <mxCell id="KkR5ibo3o_02ODOIkOhk-342" value="" style="edgeStyle=orthogonalEdgeStyle;rounded=0;orthogonalLoop=1;jettySize=auto;html=1;" edge="1" parent="1" source="KkR5ibo3o_02ODOIkOhk-339" target="KkR5ibo3o_02ODOIkOhk-341">
          <mxGeometry relative="1" as="geometry" />
        </mxCell>
        <mxCell id="KkR5ibo3o_02ODOIkOhk-339" value="收到通知，查询本地数据库消息，添加根据时间戳排序的数据到redux" style="whiteSpace=wrap;html=1;" vertex="1" parent="1">
          <mxGeometry x="400" y="370" width="120" height="60" as="geometry" />
        </mxCell>
        <mxCell id="KkR5ibo3o_02ODOIkOhk-341" value="页面重新渲染" style="whiteSpace=wrap;html=1;" vertex="1" parent="1">
          <mxGeometry x="400" y="270" width="120" height="60" as="geometry" />
        </mxCell>
        <mxCell id="KkR5ibo3o_02ODOIkOhk-343" value="结束" style="ellipse;whiteSpace=wrap;html=1;" vertex="1" parent="1">
          <mxGeometry x="200" y="810" width="120" height="80" as="geometry" />
        </mxCell>
        <mxCell id="KkR5ibo3o_02ODOIkOhk-367" style="edgeStyle=orthogonalEdgeStyle;rounded=0;orthogonalLoop=1;jettySize=auto;html=1;exitX=0.5;exitY=1;exitDx=0;exitDy=0;entryX=0.5;entryY=0;entryDx=0;entryDy=0;" edge="1" parent="1" source="KkR5ibo3o_02ODOIkOhk-359" target="KkR5ibo3o_02ODOIkOhk-343">
          <mxGeometry relative="1" as="geometry" />
        </mxCell>
        <mxCell id="KkR5ibo3o_02ODOIkOhk-368" value="false" style="edgeLabel;html=1;align=center;verticalAlign=middle;resizable=0;points=[];" vertex="1" connectable="0" parent="KkR5ibo3o_02ODOIkOhk-367">
          <mxGeometry x="0.1" y="-1" relative="1" as="geometry">
            <mxPoint as="offset" />
          </mxGeometry>
        </mxCell>
        <mxCell id="KkR5ibo3o_02ODOIkOhk-359" value="是否还有未保存的消息" style="rhombus;whiteSpace=wrap;html=1;" vertex="1" parent="1">
          <mxGeometry x="220" y="690" width="80" height="80" as="geometry" />
        </mxCell>
        <mxCell id="KkR5ibo3o_02ODOIkOhk-366" value="true" style="edgeStyle=elbowEdgeStyle;elbow=vertical;endArrow=classic;html=1;curved=0;rounded=0;endSize=8;startSize=8;exitX=0;exitY=0.5;exitDx=0;exitDy=0;entryX=0.4;entryY=-0.037;entryDx=0;entryDy=0;entryPerimeter=0;" edge="1" parent="1" source="KkR5ibo3o_02ODOIkOhk-359" target="KkR5ibo3o_02ODOIkOhk-329">
          <mxGeometry width="50" height="50" relative="1" as="geometry">
            <mxPoint x="140" y="870" as="sourcePoint" />
            <mxPoint x="190" y="820" as="targetPoint" />
            <Array as="points">
              <mxPoint x="160" y="840" />
            </Array>
          </mxGeometry>
        </mxCell>
        <mxCell id="KkR5ibo3o_02ODOIkOhk-372" value="" style="edgeStyle=elbowEdgeStyle;elbow=horizontal;endArrow=classic;html=1;curved=0;rounded=0;endSize=8;startSize=8;entryX=1;entryY=0.5;entryDx=0;entryDy=0;exitX=0.5;exitY=1;exitDx=0;exitDy=0;" edge="1" parent="1" source="KkR5ibo3o_02ODOIkOhk-333" target="KkR5ibo3o_02ODOIkOhk-359">
          <mxGeometry width="50" height="50" relative="1" as="geometry">
            <mxPoint x="400" y="740" as="sourcePoint" />
            <mxPoint x="450" y="690" as="targetPoint" />
            <Array as="points">
              <mxPoint x="460" y="730" />
            </Array>
          </mxGeometry>
        </mxCell>
        <mxCell id="KkR5ibo3o_02ODOIkOhk-378" value="false" style="edgeLabel;html=1;align=center;verticalAlign=middle;resizable=0;points=[];" vertex="1" connectable="0" parent="KkR5ibo3o_02ODOIkOhk-372">
          <mxGeometry x="-0.675" y="-2" relative="1" as="geometry">
            <mxPoint as="offset" />
          </mxGeometry>
        </mxCell>
        <mxCell id="KkR5ibo3o_02ODOIkOhk-377" value="" style="edgeStyle=elbowEdgeStyle;elbow=horizontal;endArrow=classic;html=1;curved=0;rounded=0;endSize=8;startSize=8;" edge="1" parent="1">
          <mxGeometry width="50" height="50" relative="1" as="geometry">
            <mxPoint x="520" y="500" as="sourcePoint" />
            <mxPoint x="460" y="730" as="targetPoint" />
            <Array as="points">
              <mxPoint x="560" y="630" />
            </Array>
          </mxGeometry>
        </mxCell>
      </root>
    </mxGraphModel>
  </diagram>
</mxfile>
